<svg xmlns="http://www.w3.org/2000/svg" version="1.1" xmlns:xlink="http://www.w3.org/1999/xlink" xmlns:svgjs="http://svgjs.dev/svgjs" width="1500" height="939" viewBox="0 0 1500 939"><g transform="matrix(1,0,0,1,-0.9090909090909918,-1.5145161290323017)"><svg viewBox="0 0 396 248" data-background-color="#cbf6ff" preserveAspectRatio="xMidYMid meet" height="939" width="1500" xmlns="http://www.w3.org/2000/svg" xmlns:xlink="http://www.w3.org/1999/xlink"><g id="tight-bounds" transform="matrix(1,0,0,1,0.2400000000000091,0.4000000000000057)"><svg viewBox="0 0 395.52 247.2" height="247.2" width="395.52"><g><svg viewBox="0 0 395.52 247.2" height="247.2" width="395.52"><g transform="matrix(1,0,0,1,0,58.621714285714276)"><svg viewBox="0 0 395.52 129.95657142857144" height="129.95657142857144" width="395.52"><g><svg viewBox="0 0 395.52 129.95657142857144" height="129.95657142857144" width="395.52"><g><svg viewBox="0 0 395.52 129.95657142857144" height="129.95657142857144" width="395.52"><g><svg viewBox="0 0 395.52 129.95657142857144" height="129.95657142857144" width="395.52"><g id="textblocktransform"><svg viewBox="0 0 395.52 129.95657142857144" height="129.95657142857144" width="395.52" id="textblock"><g><svg viewBox="0 0 395.52 129.95657142857144" height="129.95657142857144" width="395.52"><g transform="matrix(1,0,0,1,0,0)"><svg width="395.52" viewBox="-3.7 -40.8 140.98999999999998 47" height="129.95657142857144" data-palette-color="#000000"><path d="M23.75-33.1Q22.2-24.95 20.25-17.05 18.3-9.15 15.35 1.45L15.35 1.45Q15 1.45 14 1.55L14 1.55Q12.8 1.65 11.8 1.65L11.8 1.65Q10.3 1.65 9.22 1.55 8.15 1.45 7.2 1.1L7.2 1.1Q7.15 0.95 7.08 0.73 7 0.5 6.8 0.38 6.6 0.25 6.2 0.1L6.2 0.1Q1.75-15.85 0.3-34.25L0.3-34.25Q0.75-34.8 2.08-35.05 3.4-35.3 5-35.3L5-35.3Q7.35-35.3 8.35-35.05L8.35-35.05Q8.45-34.35 8.63-34.2 8.8-34.05 9.35-34.05L9.35-34.05Q9.5-33.2 9.6-31.48 9.7-29.75 9.7-29.35L9.7-29.35Q9.8-25.55 10.05-22.3 10.3-19.05 10.95-15.35L10.95-15.35Q11.5-17.75 11.9-20.15 12.3-22.55 12.4-23.25L12.4-23.25 12.85-26.05 12.85-26Q13.05-27.1 13.1-27.65L13.1-27.65Q13.15-28.05 13.43-29.73 13.7-31.4 14.03-32.75 14.35-34.1 14.7-35.25L14.7-35.25Q16.5-34.9 19.3-34.9L19.3-34.9Q21.35-34.9 22.35-34.7L22.35-34.7 22.75-34.1Q22.7-34.05 22.7-33.8L22.7-33.8 23.35-33.7 23.75-33.1ZM15.05-34.65Q14.95-34.65 14.95-34.55L14.95-34.55Q14.25-31.8 13.35-25.95L13.35-25.95Q12.65-21.45 12.05-18.25 11.45-15.05 10.55-11.15L10.55-11.15Q9.35-16.1 8.9-20.65 8.45-25.2 8.2-30.5L8.2-30.5Q8-34.05 7.9-34.6L7.9-34.6Q7.3-34.8 5-34.8L5-34.8Q1.35-34.8 0.8-34.1L0.8-34.1 0.8-34.05Q2.25-16.1 6.65-0.25L6.65-0.25Q7.85 0.15 10.8 0.15L10.8 0.15Q11.65 0.15 12.6 0.05 13.55-0.05 13.95-0.05L13.95-0.05Q16.9-10.7 18.8-18.43 20.7-26.15 22.25-34.2L22.25-34.2Q21.25-34.4 19.05-34.4L19.05-34.4Q18.8-34.4 17.48-34.4 16.15-34.4 15.05-34.65L15.05-34.65ZM46.65-5.75Q46.75-4.25 46.75-3.45L46.75-3.45Q46.75-1.05 46.15 1.35L46.15 1.35Q43.95 1.35 39.55 1.45L39.55 1.45 33.05 1.5Q28.6 1.5 24.75 1.2L24.75 1.2 24.75 0.25 23.75 0.2Q23.75-2.4 23.7-5.85 23.65-9.3 23.6-11.1L23.6-11.1Q23.45-16.5 23.45-21.95L23.45-21.95Q23.45-28.25 23.85-34.95L23.85-34.95Q27.75-35.15 32.87-35.27 38-35.4 41.35-35.4L41.35-35.4Q45.3-35.4 45.5-34.8L45.5-34.8Q45.5-34.45 45.67-34.27 45.85-34.1 46.15-34 46.45-33.9 46.5-33.8L46.5-33.8 46.5-33.85Q46.7-32.7 46.7-31.2L46.7-31.2Q46.7-30.4 46.6-28.8L46.6-28.8Q46.5-27.1 46.5-26.2L46.5-26.2Q43.95-25.6 40.05-25.6L40.05-25.6 38.25-25.6 36.3-25.65Q34.75-25.65 33.2-25.5L33.2-25.5Q33.2-24.75 33.1-23.55L33.1-23.55 33.05-21.9 33.05-21.45 33.95-21.4 35.9-21.45Q36.15-21.45 38.4-21.3L38.4-21.3Q38.45-21.15 38.5-20.83 38.55-20.5 38.72-20.4 38.9-20.3 39.4-20.3L39.4-20.3Q39.65-19 39.65-17.25L39.65-17.25Q39.65-15.7 39.6-14.9L39.6-14.9 39.55-12.5Q38.05-12.1 35.7-12.1L35.7-12.1Q33.85-12.1 33.45-12L33.45-12Q33.3-11.25 33.3-9.7L33.3-9.7Q33.3-8.2 33.35-7.55L33.35-7.55Q39.35-7.25 42.85-7.25L42.85-7.25Q44.05-7.25 45.65-7.35L45.65-7.35 45.65-6.75 45.7-6.3Q46.3-6.3 46.65-6.35L46.65-6.35 46.65-5.75ZM45.15-6.8Q44.4-6.75 43-6.75L43-6.75Q41.75-6.75 40.1-6.8 38.45-6.85 37.55-6.9L37.55-6.9Q34.85-7.05 32.05-7.05L32.05-7.05 32-7.1Q31.8-8.35 31.8-10.7L31.8-10.7Q31.8-12.3 32-13.35L32-13.35Q32.2-13.5 32.9-13.55 33.6-13.6 34.45-13.6L34.45-13.6Q37.05-13.6 38.05-13.9L38.05-13.9 38.1-18.25Q38.1-20 37.95-20.85L37.95-20.85 37.95-20.9Q36.6-20.9 35.9-20.95L35.9-20.95Q33.15-20.95 31.8-21.05L31.8-21.05 31.75-21.1Q31.55-21.85 31.55-23L31.55-23Q31.55-23.7 31.65-25L31.65-25 31.7-26.95 31.9-27Q32.8-27.1 33.85-27.1 34.9-27.1 35.25-27.1L35.25-27.1 39.2-27.1Q42.85-27.1 45-27.6L45-27.6 45-27.65 45.05-30Q45.15-31.6 45.15-32.4L45.15-32.4Q45.15-33.55 45-34.75L45-34.75Q45-34.9 41.35-34.9L41.35-34.9Q33.55-34.9 24.3-34.45L24.3-34.45Q24-29.6 24-22.45L24-22.45Q24-18.75 24.1-11.45L24.1-11.45Q24.25-5.9 24.25-0.25L24.25-0.25Q27.2 0 31.5 0L31.5 0Q33.65 0 38.15-0.1L38.15-0.1 44.75-0.15Q45.25-2.1 45.25-4.4L45.25-4.4Q45.25-5.2 45.15-6.7L45.15-6.7 45.15-6.8ZM56.55-16.4L56.55-13.85Q56.55-11.3 56.84-9.8 57.15-8.3 58.15-8.1L58.15-8.1 58.09-8.1 58.55-8.05Q59.8-8.05 60.4-8.55 61-9.05 61.17-9.85 61.34-10.65 61.5-12.1L61.5-12.1Q61.59-13.6 61.84-14.85L61.84-14.85Q62.9-14.7 63.9-14.7L63.9-14.7 66.25-14.75Q68.15-14.75 69.3-14.45L69.3-14.45Q69.4-14.2 69.42-14.03 69.45-13.85 69.55-13.6L69.55-13.6 70.3-13.45Q71-11.5 71-9.45L71-9.45Q71-5.95 69.37-3.3 67.75-0.65 64.84 0.78 61.95 2.2 58.25 2.2L58.25 2.2Q55.65 2.2 53.25 1.2 50.84 0.2 49.22-1.68 47.59-3.55 47.34-6.05L47.34-6.05Q47.09-11.05 47.09-16.8L47.09-16.8 47.15-24.45Q47.2-25.2 47.2-26.8L47.2-26.8 47.15-27.35Q47.15-29.05 47.8-30.4L47.8-30.4 47.8-30.35Q48.95-33.55 51.22-35.18 53.5-36.8 57.4-36.8L57.4-36.8Q60.84-36.8 64.05-34.95 67.25-33.1 69.2-30.08 71.15-27.05 71.15-23.75L71.15-23.75Q71.15-21.8 70.34-19.6L70.34-19.6Q68.9-19.25 67.2-19.25L67.2-19.25Q65-19.25 62.25-19.8L62.25-19.8 62.15-20.6Q61.45-20.7 61.3-20.95 61.15-21.2 61.12-21.93 61.09-22.65 61.05-23L61.05-23Q61-23.4 60.97-24.38 60.95-25.35 60.55-25.88 60.15-26.4 59.2-26.4L59.2-26.4Q58.65-26.4 57.97-26.2 57.3-26 57.05-25.75L57.05-25.75Q56.95-25.65 56.75-23.23 56.55-20.8 56.55-16.4L56.55-16.4ZM58.4-27.9Q59.75-27.9 60.4-27.23 61.05-26.55 61.25-25.6 61.45-24.65 61.55-23.05L61.55-23.05Q61.55-22.75 61.59-22.2 61.65-21.65 61.7-21.25L61.7-21.25Q63.9-20.75 66.2-20.75L66.2-20.75Q67.59-20.75 69-21.05L69-21.05Q69.65-22.8 69.65-24.75L69.65-24.75Q69.65-27.9 67.95-30.55 66.25-33.2 63.42-34.75 60.59-36.3 57.4-36.3L57.4-36.3Q54-36.3 51.7-34.88 49.4-33.45 48.25-30.2L48.25-30.2Q47.65-28.75 47.65-27.45L47.65-27.45Q47.65-27 47.7-26.85L47.7-26.85Q47.7-25.3 47.65-24.55L47.65-24.55 47.59-16.8Q47.59-11.1 47.84-6.1L47.84-6.1Q48.15-2.7 50.9-1 53.65 0.7 57.25 0.7L57.25 0.7Q60.75 0.7 63.55-0.68 66.34-2.05 67.92-4.58 69.5-7.1 69.5-10.45L69.5-10.45Q69.5-12.35 68.95-14L68.95-14Q68-14.25 66.34-14.25L66.34-14.25 63.7-14.2Q63.15-14.2 62.25-14.3L62.25-14.3Q62.05-13.6 61.95-12.05L61.95-12.05Q61.84-10.6 61.62-9.68 61.4-8.75 60.67-8.15 59.95-7.55 58.5-7.55L58.5-7.55Q56.34-7.55 55.67-9.78 55-12 55-15.6L55-15.6 55-17.4Q55-22.1 55.25-24.5 55.5-26.9 55.7-27.1L55.7-27.1Q56.09-27.5 56.9-27.7 57.7-27.9 58.4-27.9L58.4-27.9ZM95.39 1.15Q93.49 1.5 90.44 1.5L90.44 1.5Q88.34 1.5 87.39 1.55L87.39 1.55 87.24 0.5Q86.64 0.5 86.39 0.55L86.39 0.55Q86.04-2.1 85.94-7.1L85.94-7.1Q85.84-10.75 85.69-12.5L85.69-12.5Q84.59-12.6 84.34-12.6L84.34-12.6Q82.89-12.6 81.69-12.35L81.69-12.35Q81.64-11.6 81.64-9.9L81.64-9.9 81.69-6.9Q81.74-5.9 81.74-3.95L81.74-3.95Q81.74-0.8 81.39 0.95L81.39 0.95Q80.49 1.5 78.94 1.5L78.94 1.5Q78.34 1.5 77.14 1.4L77.14 1.4Q75.94 1.3 75.54 1.3L75.54 1.3Q74.64 1.3 73.69 1.8L73.69 1.8 73.59 0.4Q73.14 0.5 72.69 0.8L72.69 0.8Q72.39-2.75 72.14-12.23 71.89-21.7 71.89-29.55L71.89-29.55Q71.89-33.8 71.94-35.4L71.94-35.4 72.69-35.45Q73.39-35.3 74.04-35.3L74.04-35.3Q74.54-35.3 75.74-35.4L75.74-35.4Q77.14-35.5 77.94-35.5L77.94-35.5Q78.54-35.5 78.94-35.27 79.34-35.05 79.49-34.4L79.49-34.4Q79.79-34.35 80.02-34.3 80.24-34.25 80.39-34.2L80.39-34.2Q80.59-32.45 80.69-29.1L80.69-29.1Q80.89-24.35 81.34-21.95L81.34-21.95 81.89-21.95Q83.44-21.95 84.69-22.15L84.69-22.15 85.04-22.15Q85.34-25.75 85.34-29.25L85.34-29.25Q85.34-33.15 85.19-35.15L85.19-35.15Q87.59-35.85 90.94-35.85L90.94-35.85 91.64-35.85Q92.44-35.85 93.04-35.75L93.04-35.75 93.04-34.8Q93.64-34.8 94.04-34.75L94.04-34.75 95.39 1.15ZM92.54-35.3Q91.99-35.35 90.94-35.35L90.94-35.35Q87.69-35.35 85.69-34.75L85.69-34.75Q85.84-31.75 85.84-29.2L85.84-29.2Q85.84-25.55 85.49-21.7L85.49-21.7 85.44-21.7Q83.69-21.45 81.99-21.45L81.99-21.45Q80.79-21.45 80.04-21.65L80.04-21.65 79.99-21.65Q79.54-24 79.34-28.75L79.34-28.75Q79.24-32.25 78.94-34.8L78.94-34.8Q78.29-35 77.14-35L77.14-35 75.79-34.95 74.14-34.85 73.69-34.8Q73.14-34.8 72.59-34.95L72.59-34.95 72.44-34.9Q72.39-33.3 72.39-29.55L72.39-29.55Q72.39-21.6 72.62-12.6 72.84-3.6 73.14-0.05L73.14-0.05Q73.49-0.25 74.24-0.25L74.24-0.25Q74.84-0.25 76.04-0.15L76.04-0.15Q77.09 0 78.04 0L78.04 0Q78.74 0 79.17-0.05 79.59-0.1 79.94-0.35L79.94-0.35Q80.19-2.1 80.19-4.65L80.19-4.65Q80.19-6.6 80.14-7.6L80.14-7.6 80.09-10.5Q80.09-12.1 80.24-13.75L80.24-13.75Q81.59-14.1 83.29-14.1L83.29-14.1Q84.44-14.1 86.04-13.85L86.04-13.85 86.09-13.8Q86.34-11.75 86.44-7.3L86.44-7.3Q86.44-2.7 86.84 0L86.84 0 86.89 0Q87.29-0.05 88.34-0.05L88.34-0.05 90.14-0.05Q92.44-0.05 93.89-0.3L93.89-0.3 92.54-35.3ZM106.99-35.65L106.99-34.65 107.99-34.65 107.99-33.95Q107.99-30 107.94-27 107.89-24 107.84-22L107.84-22Q107.64-13.9 107.64-9.7L107.64-9.7Q107.64-4.25 107.94 0.95L107.94 0.95Q107.14 1.75 104.29 1.75L104.29 1.75 102.04 1.7Q101.29 1.65 99.94 1.65L99.94 1.65Q98.84 1.65 97.79 1.9L97.79 1.9 97.84 0.7Q96.99 0.8 96.79 0.9L96.79 0.9Q97.14-4.25 97.14-8.5L97.14-8.5Q97.14-11.35 97.09-13.53 97.04-15.7 96.99-17.1L96.99-17.1Q96.79-22.8 96.79-25.75L96.79-25.75Q96.79-30.65 97.29-35.8L97.29-35.8Q97.99-35.9 98.19-35.9L98.19-35.9Q99.59-35.9 101.09-35.8L101.09-35.8Q102.24-35.65 104.09-35.65L104.09-35.65 106.99-35.65ZM104.14-35.15Q102.94-35.15 100.24-35.3L100.24-35.3Q98.74-35.4 97.94-35.4L97.94-35.4 97.74-35.4 97.74-35.3Q97.29-31.25 97.29-25.8L97.29-25.8Q97.29-22.9 97.34-20.75 97.39-18.6 97.44-17.15L97.44-17.15Q97.64-11.25 97.64-8.2L97.64-8.2Q97.64-4 97.34 0.2L97.34 0.2Q98.04 0.1 98.49 0.1L98.49 0.1Q99.09 0.1 100.69 0.2L100.69 0.2Q102.49 0.3 103.49 0.3L103.49 0.3Q105.89 0.3 106.44-0.25L106.44-0.25Q106.14-5.65 106.14-11.15L106.14-11.15Q106.14-15.25 106.34-23.15L106.34-23.15Q106.39-25.15 106.44-28.1 106.49-31.05 106.49-34.95L106.49-34.95 106.49-35.15 104.14-35.15ZM132.59-22.2Q130.39-21.85 128.49-21.85L128.49-21.85Q126.14-21.85 124.39-22.35L124.39-22.35Q124.44-22.5 124.44-23.1L124.44-23.1Q123.74-23.2 123.39-23.35L123.39-23.35Q123.44-23.5 123.44-24L123.44-24Q123.44-25.05 122.94-25.4 122.44-25.75 121.54-25.75L121.54-25.75Q120.54-25.75 119.84-25.15 119.14-24.55 119.14-23.4L119.14-23.4Q119.14-22.6 119.49-22.38 119.84-22.15 120.34-22.1 120.84-22.05 121.04-22L121.04-22Q124.14-21.55 126.91-19.63 129.69-17.7 131.36-14.98 133.04-12.25 133.04-9.45L133.04-9.45Q133.04-6.1 131.54-3.55 130.04-1 127.56 0.38 125.09 1.75 122.19 1.75L122.19 1.75Q118.89 1.75 115.69 0.28 112.49-1.2 110.46-3.78 108.44-6.35 108.44-9.4L108.44-9.4 108.49-10.05 108.49-10.75Q109.84-10.95 111.39-10.95L111.39-10.95 114.29-10.9Q115.29-10.85 117.14-10.85L117.14-10.85Q117.14-10.3 117.29-9.85L117.29-9.85 118.14-9.85Q118.14-8.6 118.69-8.13 119.24-7.65 120.34-7.65L120.34-7.65Q121.44-7.65 122.19-8.25 122.94-8.85 122.94-9.95L122.94-9.95Q122.94-11.5 121.79-12.1 120.64-12.7 119.44-12.93 118.24-13.15 117.89-13.2L117.89-13.2 117.14-13.35Q115.64-13.65 114.64-14.33 113.64-15 112.49-16.15L112.49-16.15Q108.99-19.5 108.99-24.1L108.99-24.1Q108.99-27.2 110.54-29.8 112.09-32.4 114.76-33.93 117.44-35.45 120.69-35.45L120.69-35.45Q124.04-35.45 126.91-34.2 129.79-32.95 131.54-30.6 133.29-28.25 133.29-25.05L133.29-25.05Q133.29-23.8 132.99-22.2L132.99-22.2 132.59-22.2ZM131.54-23.7Q131.79-25.1 131.79-26.05L131.79-26.05Q131.79-30.5 128.61-32.73 125.44-34.95 120.69-34.95L120.69-34.95Q117.54-34.95 114.99-33.5 112.44-32.05 110.96-29.55 109.49-27.05 109.49-24.1L109.49-24.1Q109.49-22.35 110.24-20.33 110.99-18.3 112.54-16.75 114.09-15.2 116.24-14.85L116.24-14.85Q116.69-14.75 118.84-14.33 120.99-13.9 122.21-12.8 123.44-11.7 123.44-9.95L123.44-9.95Q123.44-8.55 122.54-7.85 121.64-7.15 120.34-7.15L120.34-7.15Q118.89-7.15 117.81-7.98 116.74-8.8 116.64-10.35L116.64-10.35Q115.09-10.35 114.29-10.4L114.29-10.4 111.59-10.45Q110.19-10.45 108.99-10.3L108.99-10.3 108.99-9.45Q108.99-6.5 110.79-4.3 112.59-2.1 115.41-0.93 118.24 0.25 121.24 0.25L121.24 0.25Q123.99 0.25 126.34-0.98 128.69-2.2 130.11-4.63 131.54-7.05 131.54-10.4L131.54-10.4Q131.54-13.15 130.09-15.58 128.64-18 126.21-19.6 123.79-21.2 120.99-21.5L120.99-21.5Q117.64-21.85 117.64-24.45L117.64-24.45Q117.64-25.8 118.49-26.53 119.34-27.25 120.54-27.25L120.54-27.25Q121.94-27.25 122.99-26.45 124.04-25.65 124.04-24.35L124.04-24.35Q124.04-23.9 123.99-23.75L123.99-23.75Q125.64-23.3 127.44-23.3L127.44-23.3Q128.99-23.3 131.49-23.7L131.49-23.7 131.54-23.7Z" opacity="1" transform="matrix(1,0,0,1,0,0)" fill="#000000" class="wordmark-text-0" data-fill-palette-color="primary" id="text-0"></path></svg></g></svg></g></svg></g></svg></g></svg></g></svg></g></svg></g></svg></g><defs></defs></svg><rect width="395.52" height="247.2" fill="none" stroke="none" visibility="hidden"></rect></g></svg></g></svg>